<svg xmlns="http://www.w3.org/2000/svg">
  <symbol id="d4" viewBox="0 0 16 16">
    <path d="M7.1,1.5,1.1,12a1,1,0,0,0,.8,1.5H14.1a1,1,0,0,0,.8-1.5L8.9,1.5A1,1,0,0,0,7.1,1.5Z"/>
  </symbol>
  <symbol id="d6" viewBox="0 0 16 16">
    <rect x="1.5" y="1.5" width="13" height="13" rx="1"/>
  </symbol>
  <symbol id="d8" viewBox="0 0 16 16">
    <path d="M7.4.8A.7.7,0,0,1,8.6.8l4.8,6.4a1.5,1.5,0,0,1,0,1.6L8.6,15.2a.7.7,0,0,1-1.2,0L2.6,8.8a1.5,1.5,0,0,1,0-1.6Z"/>
  </symbol>
  <symbol id="d10" viewBox="0 0 16 16">
    <path d="M15.2,7.4a.7.7,0,0,1,0,1.2L8.8,13.4a1.5,1.5,0,0,1-1.6,0L.8,8.6a.8.8,0,0,1,0-1.2L7.2,2.6a1.5,1.5,0,0,1,1.6,0Z"/>
  </symbol>
  <symbol id="d12" viewBox="0 0 16 16">
    <path d="M7.4.4,1,5.1A1,1,0,0,0,.6,6.2l2.5,7.6a1,1,0,0,0,.9.7h8a1,1,0,0,0,.9-.7l2.5-7.6A1,1,0,0,0,15,5.1L8.6.4A1.3,1.3,0,0,0,7.4.4Z"/>
  </symbol>
  <symbol id="d20" viewBox="0 0 16 16">
    <path d="M7.5.3,1.6,3.7a1.1,1.1,0,0,0-.5.9v6.8a1.1,1.1,0,0,0,.5.9l5.9,3.4a.9.9,0,0,0,1,0l5.9-3.4a1.1,1.1,0,0,0,.5-.9V4.6a1.1,1.1,0,0,0-.5-.9L8.5.3A.9.9,0,0,0,7.5.3Z"/>
  </symbol>
</svg>
